<svg viewBox="0 0 100 100" xmlns="http://www.w3.org/2000/svg">
<rect width="100" height="100" fill="#FCE8C0"/>
<circle cx="14" cy="18" r="1.4" fill="#fff" opacity="0.7"/>
<circle cx="86" cy="14" r="2" fill="#fff" opacity="0.6"/>
<circle cx="92" cy="80" r="1.2" fill="#fff" opacity="0.7"/>
<circle cx="10" cy="86" r="1.6" fill="#fff" opacity="0.6"/>
<path d="M88 30 l1 3 l3 1 l-3 1 l-1 3 l-1 -3 l-3 -1 l3 -1 z" fill="#fff" opacity="0.5"/>
<path d="M16 70 l1 2 l2 1 l-2 1 l-1 2 l-1 -2 l-2 -1 l2 -1 z" fill="#fff" opacity="0.5"/>
<circle cx="36" cy="44" r="8" fill="#FFFBF5"/>
<circle cx="64" cy="44" r="8" fill="#FFFBF5"/>
<circle cx="36" cy="44" r="4" fill="#C66B85" opacity="0.4"/>
<circle cx="64" cy="44" r="4" fill="#C66B85" opacity="0.4"/>
<ellipse cx="50" cy="60" rx="22" ry="20" fill="#FFFBF5"/>
<ellipse cx="50" cy="65" rx="9" ry="7" fill="#C66B85" opacity="0.25"/>
<circle cx="44" cy="58" r="1.6" fill="#4C2A36"/>
<circle cx="56" cy="58" r="1.6" fill="#4C2A36"/>
<ellipse cx="50" cy="65" rx="2.5" ry="1.6" fill="#4C2A36"/>
</svg>
