<svg viewBox="0 0 100 100" xmlns="http://www.w3.org/2000/svg">
<rect width="100" height="100" fill="#D6E4F5"/>
<circle cx="14" cy="18" r="1.4" fill="#fff" opacity="0.7"/>
<circle cx="86" cy="14" r="2" fill="#fff" opacity="0.6"/>
<circle cx="92" cy="80" r="1.2" fill="#fff" opacity="0.7"/>
<circle cx="10" cy="86" r="1.6" fill="#fff" opacity="0.6"/>
<path d="M88 30 l1 3 l3 1 l-3 1 l-1 3 l-1 -3 l-3 -1 l3 -1 z" fill="#fff" opacity="0.5"/>
<path d="M16 70 l1 2 l2 1 l-2 1 l-1 2 l-1 -2 l-2 -1 l2 -1 z" fill="#fff" opacity="0.5"/>
<rect x="20" y="50" width="60" height="32" fill="#FFFBF5"/>
<rect x="22" y="32" width="14" height="18" fill="#FFFBF5"/>
<rect x="44" y="24" width="12" height="26" fill="#FFFBF5"/>
<rect x="64" y="34" width="14" height="16" fill="#FFFBF5"/>
<polygon points="29,32 22,20 36,20" fill="#C66B85"/>
<polygon points="50,24 44,12 56,12" fill="#C66B85"/>
<polygon points="71,34 64,22 78,22" fill="#C66B85"/>
<rect x="46" y="60" width="8" height="22" fill="#4C2A36" opacity="0.8"/>
<circle cx="28" cy="44" r="2" fill="#C66B85" opacity="0.6"/>
<circle cx="50" cy="38" r="2" fill="#C66B85" opacity="0.6"/>
<circle cx="71" cy="44" r="2" fill="#C66B85" opacity="0.6"/>
</svg>
