<svg viewBox="0 0 120 1200" preserveAspectRatio="xMidYMin meet" xmlns="http://www.w3.org/2000/svg" style="width:100%;height:100%">
<path d="M30 0 Q60 80 30 160 Q0 240 30 320 Q60 400 30 480 Q0 560 30 640 Q60 720 30 800 Q0 880 30 960 Q60 1040 30 1120 Q15 1180 30 1200" stroke="#8FBE7E" stroke-width="1.6" fill="none" opacity="0.55"/>
<!-- y=40 cx=45 pink=#C66B85 -->
<g transform="translate(27 32) rotate(-30) scale(1.1)"><path d="M0 0 Q6 -8 14 -4 Q10 6 0 0 Z" fill="#8FBE7E" opacity="0.75"/><path d="M2 -1 Q8 -5 12 -3" stroke="#fff" stroke-opacity="0.4" stroke-width="0.6" fill="none"/></g>
<g transform="translate(57 44) rotate(140) scale(0.9)"><path d="M0 0 Q6 -8 14 -4 Q10 6 0 0 Z" fill="#8FBE7E" opacity="0.75"/><path d="M2 -1 Q8 -5 12 -3" stroke="#fff" stroke-opacity="0.4" stroke-width="0.6" fill="none"/></g>
<g transform="translate(33 28)"><ellipse cx="12" cy="5" rx="2.5" ry="4" fill="#C66B85" opacity="0.85"/><ellipse cx="12" cy="19" rx="2.5" ry="4" fill="#C66B85" opacity="0.85"/><ellipse cx="5" cy="12" rx="4" ry="2.5" fill="#C66B85" opacity="0.85"/><ellipse cx="19" cy="12" rx="4" ry="2.5" fill="#C66B85" opacity="0.85"/><circle cx="12" cy="12" r="2.4" fill="#FFF1C9"/></g>
<circle cx="59" cy="58" r="2" fill="#C66B85" opacity="0.6"/><circle cx="33" cy="62" r="1.5" fill="#C66B85" opacity="0.5"/>
<!-- y=140 cx=25 pink=#E89BAE -->
<g transform="translate(7 132) rotate(-20) scale(1.1)"><path d="M0 0 Q6 -8 14 -4 Q10 6 0 0 Z" fill="#8FBE7E" opacity="0.75"/><path d="M2 -1 Q8 -5 12 -3" stroke="#fff" stroke-opacity="0.4" stroke-width="0.6" fill="none"/></g>
<g transform="translate(37 144) rotate(145) scale(0.9)"><path d="M0 0 Q6 -8 14 -4 Q10 6 0 0 Z" fill="#8FBE7E" opacity="0.75"/><path d="M2 -1 Q8 -5 12 -3" stroke="#fff" stroke-opacity="0.4" stroke-width="0.6" fill="none"/></g>
<g transform="translate(13 128)"><ellipse cx="12" cy="5" rx="2.5" ry="4" fill="#E89BAE" opacity="0.85"/><ellipse cx="12" cy="19" rx="2.5" ry="4" fill="#E89BAE" opacity="0.85"/><ellipse cx="5" cy="12" rx="4" ry="2.5" fill="#E89BAE" opacity="0.85"/><ellipse cx="19" cy="12" rx="4" ry="2.5" fill="#E89BAE" opacity="0.85"/><circle cx="12" cy="12" r="2.4" fill="#FFF1C9"/></g>
<circle cx="39" cy="158" r="2" fill="#E89BAE" opacity="0.6"/><circle cx="13" cy="162" r="1.5" fill="#E89BAE" opacity="0.5"/>
<!-- y=240 cx=45 pink=#F5C9D4 -->
<g transform="translate(27 232) rotate(-10) scale(1.1)"><path d="M0 0 Q6 -8 14 -4 Q10 6 0 0 Z" fill="#8FBE7E" opacity="0.75"/><path d="M2 -1 Q8 -5 12 -3" stroke="#fff" stroke-opacity="0.4" stroke-width="0.6" fill="none"/></g>
<g transform="translate(57 244) rotate(150) scale(0.9)"><path d="M0 0 Q6 -8 14 -4 Q10 6 0 0 Z" fill="#8FBE7E" opacity="0.75"/><path d="M2 -1 Q8 -5 12 -3" stroke="#fff" stroke-opacity="0.4" stroke-width="0.6" fill="none"/></g>
<g transform="translate(33 228)"><ellipse cx="12" cy="5" rx="2.5" ry="4" fill="#F5C9D4" opacity="0.85"/><ellipse cx="12" cy="19" rx="2.5" ry="4" fill="#F5C9D4" opacity="0.85"/><ellipse cx="5" cy="12" rx="4" ry="2.5" fill="#F5C9D4" opacity="0.85"/><ellipse cx="19" cy="12" rx="4" ry="2.5" fill="#F5C9D4" opacity="0.85"/><circle cx="12" cy="12" r="2.4" fill="#FFF1C9"/></g>
<circle cx="59" cy="258" r="2" fill="#F5C9D4" opacity="0.6"/><circle cx="33" cy="262" r="1.5" fill="#F5C9D4" opacity="0.5"/>
<!-- y=360 cx=25 pink=#C66B85 -->
<g transform="translate(7 352) rotate(0) scale(1.1)"><path d="M0 0 Q6 -8 14 -4 Q10 6 0 0 Z" fill="#8FBE7E" opacity="0.75"/><path d="M2 -1 Q8 -5 12 -3" stroke="#fff" stroke-opacity="0.4" stroke-width="0.6" fill="none"/></g>
<g transform="translate(37 364) rotate(155) scale(0.9)"><path d="M0 0 Q6 -8 14 -4 Q10 6 0 0 Z" fill="#8FBE7E" opacity="0.75"/><path d="M2 -1 Q8 -5 12 -3" stroke="#fff" stroke-opacity="0.4" stroke-width="0.6" fill="none"/></g>
<g transform="translate(13 348)"><ellipse cx="12" cy="5" rx="2.5" ry="4" fill="#C66B85" opacity="0.85"/><ellipse cx="12" cy="19" rx="2.5" ry="4" fill="#C66B85" opacity="0.85"/><ellipse cx="5" cy="12" rx="4" ry="2.5" fill="#C66B85" opacity="0.85"/><ellipse cx="19" cy="12" rx="4" ry="2.5" fill="#C66B85" opacity="0.85"/><circle cx="12" cy="12" r="2.4" fill="#FFF1C9"/></g>
<circle cx="39" cy="378" r="2" fill="#C66B85" opacity="0.6"/><circle cx="13" cy="382" r="1.5" fill="#C66B85" opacity="0.5"/>
<!-- y=480 cx=45 pink=#E89BAE -->
<g transform="translate(27 472) rotate(10) scale(1.1)"><path d="M0 0 Q6 -8 14 -4 Q10 6 0 0 Z" fill="#8FBE7E" opacity="0.75"/><path d="M2 -1 Q8 -5 12 -3" stroke="#fff" stroke-opacity="0.4" stroke-width="0.6" fill="none"/></g>
<g transform="translate(57 484) rotate(160) scale(0.9)"><path d="M0 0 Q6 -8 14 -4 Q10 6 0 0 Z" fill="#8FBE7E" opacity="0.75"/><path d="M2 -1 Q8 -5 12 -3" stroke="#fff" stroke-opacity="0.4" stroke-width="0.6" fill="none"/></g>
<g transform="translate(33 468)"><ellipse cx="12" cy="5" rx="2.5" ry="4" fill="#E89BAE" opacity="0.85"/><ellipse cx="12" cy="19" rx="2.5" ry="4" fill="#E89BAE" opacity="0.85"/><ellipse cx="5" cy="12" rx="4" ry="2.5" fill="#E89BAE" opacity="0.85"/><ellipse cx="19" cy="12" rx="4" ry="2.5" fill="#E89BAE" opacity="0.85"/><circle cx="12" cy="12" r="2.4" fill="#FFF1C9"/></g>
<circle cx="59" cy="498" r="2" fill="#E89BAE" opacity="0.6"/><circle cx="33" cy="502" r="1.5" fill="#E89BAE" opacity="0.5"/>
<!-- y=590 cx=25 pink=#F5C9D4 -->
<g transform="translate(7 582) rotate(20) scale(1.1)"><path d="M0 0 Q6 -8 14 -4 Q10 6 0 0 Z" fill="#8FBE7E" opacity="0.75"/><path d="M2 -1 Q8 -5 12 -3" stroke="#fff" stroke-opacity="0.4" stroke-width="0.6" fill="none"/></g>
<g transform="translate(37 594) rotate(165) scale(0.9)"><path d="M0 0 Q6 -8 14 -4 Q10 6 0 0 Z" fill="#8FBE7E" opacity="0.75"/><path d="M2 -1 Q8 -5 12 -3" stroke="#fff" stroke-opacity="0.4" stroke-width="0.6" fill="none"/></g>
<g transform="translate(13 578)"><ellipse cx="12" cy="5" rx="2.5" ry="4" fill="#F5C9D4" opacity="0.85"/><ellipse cx="12" cy="19" rx="2.5" ry="4" fill="#F5C9D4" opacity="0.85"/><ellipse cx="5" cy="12" rx="4" ry="2.5" fill="#F5C9D4" opacity="0.85"/><ellipse cx="19" cy="12" rx="4" ry="2.5" fill="#F5C9D4" opacity="0.85"/><circle cx="12" cy="12" r="2.4" fill="#FFF1C9"/></g>
<circle cx="39" cy="608" r="2" fill="#F5C9D4" opacity="0.6"/><circle cx="13" cy="612" r="1.5" fill="#F5C9D4" opacity="0.5"/>
<!-- y=720 cx=45 pink=#C66B85 -->
<g transform="translate(27 712) rotate(30) scale(1.1)"><path d="M0 0 Q6 -8 14 -4 Q10 6 0 0 Z" fill="#8FBE7E" opacity="0.75"/><path d="M2 -1 Q8 -5 12 -3" stroke="#fff" stroke-opacity="0.4" stroke-width="0.6" fill="none"/></g>
<g transform="translate(57 724) rotate(170) scale(0.9)"><path d="M0 0 Q6 -8 14 -4 Q10 6 0 0 Z" fill="#8FBE7E" opacity="0.75"/><path d="M2 -1 Q8 -5 12 -3" stroke="#fff" stroke-opacity="0.4" stroke-width="0.6" fill="none"/></g>
<g transform="translate(33 708)"><ellipse cx="12" cy="5" rx="2.5" ry="4" fill="#C66B85" opacity="0.85"/><ellipse cx="12" cy="19" rx="2.5" ry="4" fill="#C66B85" opacity="0.85"/><ellipse cx="5" cy="12" rx="4" ry="2.5" fill="#C66B85" opacity="0.85"/><ellipse cx="19" cy="12" rx="4" ry="2.5" fill="#C66B85" opacity="0.85"/><circle cx="12" cy="12" r="2.4" fill="#FFF1C9"/></g>
<circle cx="59" cy="738" r="2" fill="#C66B85" opacity="0.6"/><circle cx="33" cy="742" r="1.5" fill="#C66B85" opacity="0.5"/>
<!-- y=840 cx=25 pink=#E89BAE -->
<g transform="translate(7 832) rotate(40) scale(1.1)"><path d="M0 0 Q6 -8 14 -4 Q10 6 0 0 Z" fill="#8FBE7E" opacity="0.75"/><path d="M2 -1 Q8 -5 12 -3" stroke="#fff" stroke-opacity="0.4" stroke-width="0.6" fill="none"/></g>
<g transform="translate(37 844) rotate(175) scale(0.9)"><path d="M0 0 Q6 -8 14 -4 Q10 6 0 0 Z" fill="#8FBE7E" opacity="0.75"/><path d="M2 -1 Q8 -5 12 -3" stroke="#fff" stroke-opacity="0.4" stroke-width="0.6" fill="none"/></g>
<g transform="translate(13 828)"><ellipse cx="12" cy="5" rx="2.5" ry="4" fill="#E89BAE" opacity="0.85"/><ellipse cx="12" cy="19" rx="2.5" ry="4" fill="#E89BAE" opacity="0.85"/><ellipse cx="5" cy="12" rx="4" ry="2.5" fill="#E89BAE" opacity="0.85"/><ellipse cx="19" cy="12" rx="4" ry="2.5" fill="#E89BAE" opacity="0.85"/><circle cx="12" cy="12" r="2.4" fill="#FFF1C9"/></g>
<circle cx="39" cy="858" r="2" fill="#E89BAE" opacity="0.6"/><circle cx="13" cy="862" r="1.5" fill="#E89BAE" opacity="0.5"/>
<!-- y=950 cx=45 pink=#F5C9D4 -->
<g transform="translate(27 942) rotate(50) scale(1.1)"><path d="M0 0 Q6 -8 14 -4 Q10 6 0 0 Z" fill="#8FBE7E" opacity="0.75"/><path d="M2 -1 Q8 -5 12 -3" stroke="#fff" stroke-opacity="0.4" stroke-width="0.6" fill="none"/></g>
<g transform="translate(57 954) rotate(180) scale(0.9)"><path d="M0 0 Q6 -8 14 -4 Q10 6 0 0 Z" fill="#8FBE7E" opacity="0.75"/><path d="M2 -1 Q8 -5 12 -3" stroke="#fff" stroke-opacity="0.4" stroke-width="0.6" fill="none"/></g>
<g transform="translate(33 938)"><ellipse cx="12" cy="5" rx="2.5" ry="4" fill="#F5C9D4" opacity="0.85"/><ellipse cx="12" cy="19" rx="2.5" ry="4" fill="#F5C9D4" opacity="0.85"/><ellipse cx="5" cy="12" rx="4" ry="2.5" fill="#F5C9D4" opacity="0.85"/><ellipse cx="19" cy="12" rx="4" ry="2.5" fill="#F5C9D4" opacity="0.85"/><circle cx="12" cy="12" r="2.4" fill="#FFF1C9"/></g>
<circle cx="59" cy="968" r="2" fill="#F5C9D4" opacity="0.6"/><circle cx="33" cy="972" r="1.5" fill="#F5C9D4" opacity="0.5"/>
<!-- y=1060 cx=25 pink=#C66B85 -->
<g transform="translate(7 1052) rotate(60) scale(1.1)"><path d="M0 0 Q6 -8 14 -4 Q10 6 0 0 Z" fill="#8FBE7E" opacity="0.75"/><path d="M2 -1 Q8 -5 12 -3" stroke="#fff" stroke-opacity="0.4" stroke-width="0.6" fill="none"/></g>
<g transform="translate(37 1064) rotate(185) scale(0.9)"><path d="M0 0 Q6 -8 14 -4 Q10 6 0 0 Z" fill="#8FBE7E" opacity="0.75"/><path d="M2 -1 Q8 -5 12 -3" stroke="#fff" stroke-opacity="0.4" stroke-width="0.6" fill="none"/></g>
<g transform="translate(13 1048)"><ellipse cx="12" cy="5" rx="2.5" ry="4" fill="#C66B85" opacity="0.85"/><ellipse cx="12" cy="19" rx="2.5" ry="4" fill="#C66B85" opacity="0.85"/><ellipse cx="5" cy="12" rx="4" ry="2.5" fill="#C66B85" opacity="0.85"/><ellipse cx="19" cy="12" rx="4" ry="2.5" fill="#C66B85" opacity="0.85"/><circle cx="12" cy="12" r="2.4" fill="#FFF1C9"/></g>
<circle cx="39" cy="1078" r="2" fill="#C66B85" opacity="0.6"/><circle cx="13" cy="1082" r="1.5" fill="#C66B85" opacity="0.5"/>
<!-- y=1170 cx=45 pink=#E89BAE -->
<g transform="translate(27 1162) rotate(70) scale(1.1)"><path d="M0 0 Q6 -8 14 -4 Q10 6 0 0 Z" fill="#8FBE7E" opacity="0.75"/><path d="M2 -1 Q8 -5 12 -3" stroke="#fff" stroke-opacity="0.4" stroke-width="0.6" fill="none"/></g>
<g transform="translate(57 1174) rotate(190) scale(0.9)"><path d="M0 0 Q6 -8 14 -4 Q10 6 0 0 Z" fill="#8FBE7E" opacity="0.75"/><path d="M2 -1 Q8 -5 12 -3" stroke="#fff" stroke-opacity="0.4" stroke-width="0.6" fill="none"/></g>
<g transform="translate(33 1158)"><ellipse cx="12" cy="5" rx="2.5" ry="4" fill="#E89BAE" opacity="0.85"/><ellipse cx="12" cy="19" rx="2.5" ry="4" fill="#E89BAE" opacity="0.85"/><ellipse cx="5" cy="12" rx="4" ry="2.5" fill="#E89BAE" opacity="0.85"/><ellipse cx="19" cy="12" rx="4" ry="2.5" fill="#E89BAE" opacity="0.85"/><circle cx="12" cy="12" r="2.4" fill="#FFF1C9"/></g>
<circle cx="59" cy="1188" r="2" fill="#E89BAE" opacity="0.6"/><circle cx="33" cy="1192" r="1.5" fill="#E89BAE" opacity="0.5"/>
</svg>
