<svg viewBox="0 0 100 100" xmlns="http://www.w3.org/2000/svg">
<rect width="100" height="100" fill="#FFE5C9"/>
<circle cx="14" cy="18" r="1.4" fill="#fff" opacity="0.7"/>
<circle cx="86" cy="14" r="2" fill="#fff" opacity="0.6"/>
<circle cx="92" cy="80" r="1.2" fill="#fff" opacity="0.7"/>
<circle cx="10" cy="86" r="1.6" fill="#fff" opacity="0.6"/>
<path d="M88 30 l1 3 l3 1 l-3 1 l-1 3 l-1 -3 l-3 -1 l3 -1 z" fill="#fff" opacity="0.5"/>
<path d="M16 70 l1 2 l2 1 l-2 1 l-1 2 l-1 -2 l-2 -1 l2 -1 z" fill="#fff" opacity="0.5"/>
<rect x="32" y="50" width="36" height="24" rx="4" fill="#FFFBF5"/>
<rect x="36" y="58" width="28" height="3" fill="#C66B85" opacity="0.55"/>
<rect x="49" y="38" width="2" height="14" fill="#4C2A36"/>
<ellipse cx="50" cy="35" rx="3" ry="4" fill="#C66B85"/>
<circle cx="25" cy="30" r="5" fill="#FFFBF5" opacity="0.7"/>
<circle cx="75" cy="32" r="6" fill="#FFFBF5" opacity="0.7"/>
<line x1="25" y1="35" x2="25" y2="50" stroke="#4C2A36" stroke-width="0.8"/>
<line x1="75" y1="38" x2="75" y2="50" stroke="#4C2A36" stroke-width="0.8"/>
</svg>
