<svg viewBox="0 0 100 100" xmlns="http://www.w3.org/2000/svg">
<rect width="100" height="100" fill="#FFF1DA"/>
<circle cx="14" cy="18" r="1.4" fill="#fff" opacity="0.7"/>
<circle cx="86" cy="14" r="2" fill="#fff" opacity="0.6"/>
<circle cx="92" cy="80" r="1.2" fill="#fff" opacity="0.7"/>
<circle cx="10" cy="86" r="1.6" fill="#fff" opacity="0.6"/>
<path d="M88 30 l1 3 l3 1 l-3 1 l-1 3 l-1 -3 l-3 -1 l3 -1 z" fill="#fff" opacity="0.5"/>
<path d="M16 70 l1 2 l2 1 l-2 1 l-1 2 l-1 -2 l-2 -1 l2 -1 z" fill="#fff" opacity="0.5"/>
<ellipse cx="50" cy="62" rx="20" ry="22" fill="#FFFBF5"/>
<ellipse cx="40" cy="38" rx="5" ry="14" fill="#FFFBF5"/>
<ellipse cx="60" cy="38" rx="5" ry="14" fill="#FFFBF5"/>
<ellipse cx="40" cy="40" rx="2.5" ry="8" fill="#C66B85" opacity="0.5"/>
<ellipse cx="60" cy="40" rx="2.5" ry="8" fill="#C66B85" opacity="0.5"/>
<circle cx="44" cy="60" r="1.6" fill="#4C2A36"/>
<circle cx="56" cy="60" r="1.6" fill="#4C2A36"/>
<path d="M48 66 Q50 68 52 66" stroke="#4C2A36" stroke-width="1.2" fill="none"/>
<circle cx="50" cy="64" r="1.4" fill="#C66B85"/>
</svg>
