<svg viewBox="0 0 100 100" xmlns="http://www.w3.org/2000/svg">
<rect width="100" height="100" fill="#FCD7DF"/>
<circle cx="14" cy="18" r="1.4" fill="#fff" opacity="0.7"/>
<circle cx="86" cy="14" r="2" fill="#fff" opacity="0.6"/>
<circle cx="92" cy="80" r="1.2" fill="#fff" opacity="0.7"/>
<circle cx="10" cy="86" r="1.6" fill="#fff" opacity="0.6"/>
<path d="M88 30 l1 3 l3 1 l-3 1 l-1 3 l-1 -3 l-3 -1 l3 -1 z" fill="#fff" opacity="0.5"/>
<path d="M16 70 l1 2 l2 1 l-2 1 l-1 2 l-1 -2 l-2 -1 l2 -1 z" fill="#fff" opacity="0.5"/>
<ellipse cx="38" cy="62" rx="14" ry="22" fill="#FFFBF5" opacity="0.95"/>
<ellipse cx="62" cy="62" rx="14" ry="22" fill="#FFFBF5" opacity="0.95"/>
<ellipse cx="50" cy="60" rx="10" ry="18" fill="#FFFBF5" opacity="0.95"/>
<circle cx="38" cy="42" r="7" fill="#4C2A36" opacity="0.85"/>
<circle cx="62" cy="42" r="7" fill="#4C2A36" opacity="0.85"/>
<circle cx="50" cy="48" r="5" fill="#4C2A36" opacity="0.85"/>
</svg>
