<svg viewBox="0 0 100 100" xmlns="http://www.w3.org/2000/svg">
<rect width="100" height="100" fill="#F5D9E8"/>
<circle cx="14" cy="18" r="1.4" fill="#fff" opacity="0.7"/>
<circle cx="86" cy="14" r="2" fill="#fff" opacity="0.6"/>
<circle cx="92" cy="80" r="1.2" fill="#fff" opacity="0.7"/>
<circle cx="10" cy="86" r="1.6" fill="#fff" opacity="0.6"/>
<path d="M88 30 l1 3 l3 1 l-3 1 l-1 3 l-1 -3 l-3 -1 l3 -1 z" fill="#fff" opacity="0.5"/>
<path d="M16 70 l1 2 l2 1 l-2 1 l-1 2 l-1 -2 l-2 -1 l2 -1 z" fill="#fff" opacity="0.5"/>
<path d="M30 75 Q30 50 42 48 Q54 50 54 75 Z" fill="#FFFBF5"/>
<circle cx="42" cy="38" r="9" fill="#4C2A36" opacity="0.85"/>
<path d="M58 78 Q58 62 66 60 Q74 62 74 78 Z" fill="#FFFBF5"/>
<circle cx="66" cy="54" r="6" fill="#4C2A36" opacity="0.85"/>
</svg>
