<svg viewBox="0 0 100 100" xmlns="http://www.w3.org/2000/svg">
<rect width="100" height="100" fill="#D9ECEF"/>
<circle cx="14" cy="18" r="1.4" fill="#fff" opacity="0.7"/>
<circle cx="86" cy="14" r="2" fill="#fff" opacity="0.6"/>
<circle cx="92" cy="80" r="1.2" fill="#fff" opacity="0.7"/>
<circle cx="10" cy="86" r="1.6" fill="#fff" opacity="0.6"/>
<path d="M88 30 l1 3 l3 1 l-3 1 l-1 3 l-1 -3 l-3 -1 l3 -1 z" fill="#fff" opacity="0.5"/>
<path d="M16 70 l1 2 l2 1 l-2 1 l-1 2 l-1 -2 l-2 -1 l2 -1 z" fill="#fff" opacity="0.5"/>
<ellipse cx="50" cy="42" rx="20" ry="18" fill="#FFFBF5"/>
<path d="M30 50 Q26 60 32 70 Q34 64 36 60" fill="#FFFBF5"/>
<path d="M40 56 Q36 68 42 76 Q44 70 44 64" fill="#FFFBF5"/>
<path d="M50 58 Q50 72 50 78 Q52 72 52 64" fill="#FFFBF5"/>
<path d="M60 56 Q64 68 58 76 Q56 70 56 64" fill="#FFFBF5"/>
<path d="M70 50 Q74 60 68 70 Q66 64 64 60" fill="#FFFBF5"/>
<circle cx="44" cy="40" r="2" fill="#4C2A36"/>
<circle cx="56" cy="40" r="2" fill="#4C2A36"/>
<path d="M46 48 Q50 50 54 48" stroke="#4C2A36" stroke-width="1.2" fill="none"/>
</svg>
