<svg viewBox="0 0 100 100" xmlns="http://www.w3.org/2000/svg">
<rect width="100" height="100" fill="#FCE0CF"/>
<circle cx="14" cy="18" r="1.4" fill="#fff" opacity="0.7"/>
<circle cx="86" cy="14" r="2" fill="#fff" opacity="0.6"/>
<circle cx="92" cy="80" r="1.2" fill="#fff" opacity="0.7"/>
<circle cx="10" cy="86" r="1.6" fill="#fff" opacity="0.6"/>
<path d="M88 30 l1 3 l3 1 l-3 1 l-1 3 l-1 -3 l-3 -1 l3 -1 z" fill="#fff" opacity="0.5"/>
<path d="M16 70 l1 2 l2 1 l-2 1 l-1 2 l-1 -2 l-2 -1 l2 -1 z" fill="#fff" opacity="0.5"/>
<ellipse cx="50" cy="58" rx="22" ry="18" fill="#FFFBF5"/>
<polygon points="32,40 38,48 30,52" fill="#FFFBF5"/>
<polygon points="68,40 62,48 70,52" fill="#FFFBF5"/>
<circle cx="44" cy="56" r="2.2" fill="#4C2A36"/>
<circle cx="56" cy="56" r="2.2" fill="#4C2A36"/>
<path d="M48 64 L50 67 L52 64" stroke="#4C2A36" stroke-width="1.3" fill="none"/>
<path d="M46 70 Q50 73 54 70" stroke="#4C2A36" stroke-width="1.2" fill="none"/>
<line x1="36" y1="60" x2="42" y2="62" stroke="#4C2A36" stroke-width="0.8"/>
<line x1="36" y1="64" x2="42" y2="64" stroke="#4C2A36" stroke-width="0.8"/>
<line x1="58" y1="62" x2="64" y2="60" stroke="#4C2A36" stroke-width="0.8"/>
<line x1="58" y1="64" x2="64" y2="64" stroke="#4C2A36" stroke-width="0.8"/>
</svg>
