<svg viewBox="0 0 100 100" xmlns="http://www.w3.org/2000/svg">
<rect width="100" height="100" fill="#F0E6F5"/>
<circle cx="14" cy="18" r="1.4" fill="#fff" opacity="0.7"/>
<circle cx="86" cy="14" r="2" fill="#fff" opacity="0.6"/>
<circle cx="92" cy="80" r="1.2" fill="#fff" opacity="0.7"/>
<circle cx="10" cy="86" r="1.6" fill="#fff" opacity="0.6"/>
<path d="M88 30 l1 3 l3 1 l-3 1 l-1 3 l-1 -3 l-3 -1 l3 -1 z" fill="#fff" opacity="0.5"/>
<path d="M16 70 l1 2 l2 1 l-2 1 l-1 2 l-1 -2 l-2 -1 l2 -1 z" fill="#fff" opacity="0.5"/>
<path d="M30 82 Q30 52 42 50 Q54 52 54 82 Z" fill="#FFFBF5"/>
<circle cx="42" cy="40" r="9" fill="#4C2A36" opacity="0.85"/>
<path d="M58 82 Q58 58 66 56 Q74 58 74 82 Z" fill="#FFFBF5"/>
<circle cx="66" cy="46" r="8" fill="#4C2A36" opacity="0.85"/>
<path d="M58 50 Q60 46 64 46" stroke="#FFFBF5" stroke-width="2" fill="none"/>
<circle cx="50" cy="22" r="3" fill="#C66B85"/>
<circle cx="46" cy="20" r="2" fill="#FFFBF5"/>
<circle cx="54" cy="24" r="2" fill="#FFFBF5"/>
</svg>
