<svg width="48" height="48" viewBox="0 0 48 48" fill="none" xmlns="http://www.w3.org/2000/svg">
<g opacity="0.85">
  <ellipse cx="24" cy="10" rx="6" ry="9" fill="#F5C9D4"/>
  <ellipse cx="38" cy="24" rx="9" ry="6" fill="#F5C9D4"/>
  <ellipse cx="24" cy="38" rx="6" ry="9" fill="#F5C9D4"/>
  <ellipse cx="10" cy="24" rx="9" ry="6" fill="#F5C9D4"/>
  <ellipse cx="34" cy="14" rx="6" ry="8" transform="rotate(45 34 14)" fill="#FBD3D3"/>
  <ellipse cx="34" cy="34" rx="6" ry="8" transform="rotate(135 34 34)" fill="#FBD3D3"/>
  <ellipse cx="14" cy="34" rx="6" ry="8" transform="rotate(45 14 34)" fill="#FBD3D3"/>
  <ellipse cx="14" cy="14" rx="6" ry="8" transform="rotate(135 14 14)" fill="#FBD3D3"/>
</g>
<circle cx="24" cy="24" r="11" fill="#FFFBF5"/>
<circle cx="24" cy="24" r="11" stroke="#C66B85" stroke-width="1" stroke-opacity="0.35" fill="none"/>
<text x="24" y="28" text-anchor="middle" font-family="Cormorant Garamond,serif" font-weight="600" font-size="13" fill="#C66B85" letter-spacing="-0.5">gf</text>
<path d="M24 36 Q22 42 18 44" stroke="#8FBE7E" stroke-width="1.2" stroke-linecap="round" fill="none"/>
<ellipse cx="20" cy="42" rx="2" ry="1" transform="rotate(-30 20 42)" fill="#8FBE7E" opacity="0.7"/>
</svg>
