<svg viewBox="0 0 100 100" preserveAspectRatio="none" width="100%" height="70" style="display:block" xmlns="http://www.w3.org/2000/svg">
<!-- dots -->
<circle cx="0" cy="25" r="0.6" fill="#C66B85" opacity="0.35"/><circle cx="3.1" cy="28" r="0.9" fill="#C66B85" opacity="0.35"/>
<circle cx="6.2" cy="22" r="0.6" fill="#C66B85" opacity="0.35"/><circle cx="9.3" cy="30" r="0.9" fill="#C66B85" opacity="0.35"/>
<circle cx="12.4" cy="24" r="1.2" fill="#C66B85" opacity="0.35"/><circle cx="15.5" cy="27" r="0.6" fill="#C66B85" opacity="0.35"/>
<circle cx="18.6" cy="22" r="0.9" fill="#C66B85" opacity="0.35"/><circle cx="21.7" cy="29" r="0.6" fill="#C66B85" opacity="0.35"/>
<circle cx="24.8" cy="25" r="1.2" fill="#C66B85" opacity="0.35"/><circle cx="27.9" cy="21" r="0.6" fill="#C66B85" opacity="0.35"/>
<circle cx="31" cy="28" r="0.9" fill="#C66B85" opacity="0.35"/><circle cx="34.1" cy="23" r="0.6" fill="#C66B85" opacity="0.35"/>
<circle cx="37.2" cy="30" r="1.2" fill="#C66B85" opacity="0.35"/><circle cx="40.3" cy="22" r="0.6" fill="#C66B85" opacity="0.35"/>
<circle cx="43.4" cy="27" r="0.9" fill="#C66B85" opacity="0.35"/><circle cx="46.5" cy="24" r="0.6" fill="#C66B85" opacity="0.35"/>
<circle cx="49.6" cy="29" r="1.2" fill="#C66B85" opacity="0.35"/><circle cx="52.7" cy="21" r="0.6" fill="#C66B85" opacity="0.35"/>
<circle cx="55.8" cy="26" r="0.9" fill="#C66B85" opacity="0.35"/><circle cx="58.9" cy="23" r="0.6" fill="#C66B85" opacity="0.35"/>
<circle cx="62" cy="28" r="1.2" fill="#C66B85" opacity="0.35"/><circle cx="65.1" cy="25" r="0.6" fill="#C66B85" opacity="0.35"/>
<circle cx="68.2" cy="22" r="0.9" fill="#C66B85" opacity="0.35"/><circle cx="71.3" cy="30" r="0.6" fill="#C66B85" opacity="0.35"/>
<circle cx="74.4" cy="24" r="1.2" fill="#C66B85" opacity="0.35"/><circle cx="77.5" cy="27" r="0.6" fill="#C66B85" opacity="0.35"/>
<circle cx="80.6" cy="21" r="0.9" fill="#C66B85" opacity="0.35"/><circle cx="83.7" cy="29" r="0.6" fill="#C66B85" opacity="0.35"/>
<circle cx="86.8" cy="25" r="1.2" fill="#C66B85" opacity="0.35"/><circle cx="89.9" cy="23" r="0.6" fill="#C66B85" opacity="0.35"/>
<!-- flower 0: x=3.57 flip=1 color=#C66B85 -->
<g transform="translate(3.57 50) scale(1,1)">
  <g transform="translate(-12 -6) rotate(-20) scale(1.2)"><path d="M0 0 Q6 -8 14 -4 Q10 6 0 0 Z" fill="#8FBE7E" opacity="0.75"/></g>
  <g transform="translate(8 -8) rotate(30) scale(1.0)"><path d="M0 0 Q6 -8 14 -4 Q10 6 0 0 Z" fill="#8FBE7E" opacity="0.75"/></g>
  <g transform="translate(-6 8) rotate(200) scale(0.9)"><path d="M0 0 Q6 -8 14 -4 Q10 6 0 0 Z" fill="#8FBE7E" opacity="0.75"/></g>
  <g transform="translate(10 6) rotate(160) scale(1.1)"><path d="M0 0 Q6 -8 14 -4 Q10 6 0 0 Z" fill="#8FBE7E" opacity="0.75"/></g>
  <g transform="translate(-12 -12)"><ellipse cx="12" cy="5" rx="2.5" ry="4" fill="#C66B85" opacity="0.85"/><ellipse cx="12" cy="19" rx="2.5" ry="4" fill="#C66B85" opacity="0.85"/><ellipse cx="5" cy="12" rx="4" ry="2.5" fill="#C66B85" opacity="0.85"/><ellipse cx="19" cy="12" rx="4" ry="2.5" fill="#C66B85" opacity="0.85"/><circle cx="12" cy="12" r="2.4" fill="#FFF1C9"/></g>
  <circle cx="-14" cy="2" r="1.5" fill="#C66B85" opacity="0.6"/><circle cx="12" cy="-2" r="1" fill="#C66B85" opacity="0.5"/>
</g>
<!-- flower 1: x=10.71 flip=-1 color=#E89BAE -->
<g transform="translate(10.71 50) scale(-1,1)">
  <g transform="translate(-12 -6) rotate(-20) scale(1.2)"><path d="M0 0 Q6 -8 14 -4 Q10 6 0 0 Z" fill="#8FBE7E" opacity="0.75"/></g>
  <g transform="translate(8 -8) rotate(30) scale(1.0)"><path d="M0 0 Q6 -8 14 -4 Q10 6 0 0 Z" fill="#8FBE7E" opacity="0.75"/></g>
  <g transform="translate(-6 8) rotate(200) scale(0.9)"><path d="M0 0 Q6 -8 14 -4 Q10 6 0 0 Z" fill="#8FBE7E" opacity="0.75"/></g>
  <g transform="translate(10 6) rotate(160) scale(1.1)"><path d="M0 0 Q6 -8 14 -4 Q10 6 0 0 Z" fill="#8FBE7E" opacity="0.75"/></g>
  <g transform="translate(-12 -12)"><ellipse cx="12" cy="5" rx="2.5" ry="4" fill="#E89BAE" opacity="0.85"/><ellipse cx="12" cy="19" rx="2.5" ry="4" fill="#E89BAE" opacity="0.85"/><ellipse cx="5" cy="12" rx="4" ry="2.5" fill="#E89BAE" opacity="0.85"/><ellipse cx="19" cy="12" rx="4" ry="2.5" fill="#E89BAE" opacity="0.85"/><circle cx="12" cy="12" r="2.4" fill="#FFF1C9"/></g>
  <circle cx="-14" cy="2" r="1.5" fill="#E89BAE" opacity="0.6"/><circle cx="12" cy="-2" r="1" fill="#E89BAE" opacity="0.5"/>
</g>
<!-- flower 2: x=17.86 flip=1 color=#F5C9D4 -->
<g transform="translate(17.86 50) scale(1,1)">
  <g transform="translate(-12 -6) rotate(-20) scale(1.2)"><path d="M0 0 Q6 -8 14 -4 Q10 6 0 0 Z" fill="#8FBE7E" opacity="0.75"/></g>
  <g transform="translate(8 -8) rotate(30) scale(1.0)"><path d="M0 0 Q6 -8 14 -4 Q10 6 0 0 Z" fill="#8FBE7E" opacity="0.75"/></g>
  <g transform="translate(-6 8) rotate(200) scale(0.9)"><path d="M0 0 Q6 -8 14 -4 Q10 6 0 0 Z" fill="#8FBE7E" opacity="0.75"/></g>
  <g transform="translate(10 6) rotate(160) scale(1.1)"><path d="M0 0 Q6 -8 14 -4 Q10 6 0 0 Z" fill="#8FBE7E" opacity="0.75"/></g>
  <g transform="translate(-12 -12)"><ellipse cx="12" cy="5" rx="2.5" ry="4" fill="#F5C9D4" opacity="0.85"/><ellipse cx="12" cy="19" rx="2.5" ry="4" fill="#F5C9D4" opacity="0.85"/><ellipse cx="5" cy="12" rx="4" ry="2.5" fill="#F5C9D4" opacity="0.85"/><ellipse cx="19" cy="12" rx="4" ry="2.5" fill="#F5C9D4" opacity="0.85"/><circle cx="12" cy="12" r="2.4" fill="#FFF1C9"/></g>
  <circle cx="-14" cy="2" r="1.5" fill="#F5C9D4" opacity="0.6"/><circle cx="12" cy="-2" r="1" fill="#F5C9D4" opacity="0.5"/>
</g>
<!-- flower 3: x=25 flip=-1 color=#FBD3D3 -->
<g transform="translate(25 50) scale(-1,1)">
  <g transform="translate(-12 -6) rotate(-20) scale(1.2)"><path d="M0 0 Q6 -8 14 -4 Q10 6 0 0 Z" fill="#8FBE7E" opacity="0.75"/></g>
  <g transform="translate(8 -8) rotate(30) scale(1.0)"><path d="M0 0 Q6 -8 14 -4 Q10 6 0 0 Z" fill="#8FBE7E" opacity="0.75"/></g>
  <g transform="translate(-6 8) rotate(200) scale(0.9)"><path d="M0 0 Q6 -8 14 -4 Q10 6 0 0 Z" fill="#8FBE7E" opacity="0.75"/></g>
  <g transform="translate(10 6) rotate(160) scale(1.1)"><path d="M0 0 Q6 -8 14 -4 Q10 6 0 0 Z" fill="#8FBE7E" opacity="0.75"/></g>
  <g transform="translate(-12 -12)"><ellipse cx="12" cy="5" rx="2.5" ry="4" fill="#FBD3D3" opacity="0.85"/><ellipse cx="12" cy="19" rx="2.5" ry="4" fill="#FBD3D3" opacity="0.85"/><ellipse cx="5" cy="12" rx="4" ry="2.5" fill="#FBD3D3" opacity="0.85"/><ellipse cx="19" cy="12" rx="4" ry="2.5" fill="#FBD3D3" opacity="0.85"/><circle cx="12" cy="12" r="2.4" fill="#FFF1C9"/></g>
  <circle cx="-14" cy="2" r="1.5" fill="#FBD3D3" opacity="0.6"/><circle cx="12" cy="-2" r="1" fill="#FBD3D3" opacity="0.5"/>
</g>
<!-- flower 4: x=32.14 flip=1 color=#C66B85 -->
<g transform="translate(32.14 50) scale(1,1)">
  <g transform="translate(-12 -6) rotate(-20) scale(1.2)"><path d="M0 0 Q6 -8 14 -4 Q10 6 0 0 Z" fill="#8FBE7E" opacity="0.75"/></g>
  <g transform="translate(8 -8) rotate(30) scale(1.0)"><path d="M0 0 Q6 -8 14 -4 Q10 6 0 0 Z" fill="#8FBE7E" opacity="0.75"/></g>
  <g transform="translate(-6 8) rotate(200) scale(0.9)"><path d="M0 0 Q6 -8 14 -4 Q10 6 0 0 Z" fill="#8FBE7E" opacity="0.75"/></g>
  <g transform="translate(10 6) rotate(160) scale(1.1)"><path d="M0 0 Q6 -8 14 -4 Q10 6 0 0 Z" fill="#8FBE7E" opacity="0.75"/></g>
  <g transform="translate(-12 -12)"><ellipse cx="12" cy="5" rx="2.5" ry="4" fill="#C66B85" opacity="0.85"/><ellipse cx="12" cy="19" rx="2.5" ry="4" fill="#C66B85" opacity="0.85"/><ellipse cx="5" cy="12" rx="4" ry="2.5" fill="#C66B85" opacity="0.85"/><ellipse cx="19" cy="12" rx="4" ry="2.5" fill="#C66B85" opacity="0.85"/><circle cx="12" cy="12" r="2.4" fill="#FFF1C9"/></g>
  <circle cx="-14" cy="2" r="1.5" fill="#C66B85" opacity="0.6"/><circle cx="12" cy="-2" r="1" fill="#C66B85" opacity="0.5"/>
</g>
<!-- flower 5: x=39.29 flip=-1 color=#E89BAE -->
<g transform="translate(39.29 50) scale(-1,1)">
  <g transform="translate(-12 -6) rotate(-20) scale(1.2)"><path d="M0 0 Q6 -8 14 -4 Q10 6 0 0 Z" fill="#8FBE7E" opacity="0.75"/></g>
  <g transform="translate(8 -8) rotate(30) scale(1.0)"><path d="M0 0 Q6 -8 14 -4 Q10 6 0 0 Z" fill="#8FBE7E" opacity="0.75"/></g>
  <g transform="translate(-6 8) rotate(200) scale(0.9)"><path d="M0 0 Q6 -8 14 -4 Q10 6 0 0 Z" fill="#8FBE7E" opacity="0.75"/></g>
  <g transform="translate(10 6) rotate(160) scale(1.1)"><path d="M0 0 Q6 -8 14 -4 Q10 6 0 0 Z" fill="#8FBE7E" opacity="0.75"/></g>
  <g transform="translate(-12 -12)"><ellipse cx="12" cy="5" rx="2.5" ry="4" fill="#E89BAE" opacity="0.85"/><ellipse cx="12" cy="19" rx="2.5" ry="4" fill="#E89BAE" opacity="0.85"/><ellipse cx="5" cy="12" rx="4" ry="2.5" fill="#E89BAE" opacity="0.85"/><ellipse cx="19" cy="12" rx="4" ry="2.5" fill="#E89BAE" opacity="0.85"/><circle cx="12" cy="12" r="2.4" fill="#FFF1C9"/></g>
  <circle cx="-14" cy="2" r="1.5" fill="#E89BAE" opacity="0.6"/><circle cx="12" cy="-2" r="1" fill="#E89BAE" opacity="0.5"/>
</g>
<!-- flower 6: x=46.43 flip=1 color=#F5C9D4 -->
<g transform="translate(46.43 50) scale(1,1)">
  <g transform="translate(-12 -12)"><ellipse cx="12" cy="5" rx="2.5" ry="4" fill="#F5C9D4" opacity="0.85"/><ellipse cx="12" cy="19" rx="2.5" ry="4" fill="#F5C9D4" opacity="0.85"/><ellipse cx="5" cy="12" rx="4" ry="2.5" fill="#F5C9D4" opacity="0.85"/><ellipse cx="19" cy="12" rx="4" ry="2.5" fill="#F5C9D4" opacity="0.85"/><circle cx="12" cy="12" r="2.4" fill="#FFF1C9"/></g>
</g>
<!-- flower 7: x=53.57 flip=-1 color=#FBD3D3 -->
<g transform="translate(53.57 50) scale(-1,1)">
  <g transform="translate(-12 -12)"><ellipse cx="12" cy="5" rx="2.5" ry="4" fill="#FBD3D3" opacity="0.85"/><ellipse cx="12" cy="19" rx="2.5" ry="4" fill="#FBD3D3" opacity="0.85"/><ellipse cx="5" cy="12" rx="4" ry="2.5" fill="#FBD3D3" opacity="0.85"/><ellipse cx="19" cy="12" rx="4" ry="2.5" fill="#FBD3D3" opacity="0.85"/><circle cx="12" cy="12" r="2.4" fill="#FFF1C9"/></g>
</g>
<!-- flower 8: x=60.71 flip=1 color=#C66B85 -->
<g transform="translate(60.71 50) scale(1,1)">
  <g transform="translate(-12 -6) rotate(-20) scale(1.2)"><path d="M0 0 Q6 -8 14 -4 Q10 6 0 0 Z" fill="#8FBE7E" opacity="0.75"/></g>
  <g transform="translate(8 -8) rotate(30) scale(1.0)"><path d="M0 0 Q6 -8 14 -4 Q10 6 0 0 Z" fill="#8FBE7E" opacity="0.75"/></g>
  <g transform="translate(-6 8) rotate(200) scale(0.9)"><path d="M0 0 Q6 -8 14 -4 Q10 6 0 0 Z" fill="#8FBE7E" opacity="0.75"/></g>
  <g transform="translate(10 6) rotate(160) scale(1.1)"><path d="M0 0 Q6 -8 14 -4 Q10 6 0 0 Z" fill="#8FBE7E" opacity="0.75"/></g>
  <g transform="translate(-12 -12)"><ellipse cx="12" cy="5" rx="2.5" ry="4" fill="#C66B85" opacity="0.85"/><ellipse cx="12" cy="19" rx="2.5" ry="4" fill="#C66B85" opacity="0.85"/><ellipse cx="5" cy="12" rx="4" ry="2.5" fill="#C66B85" opacity="0.85"/><ellipse cx="19" cy="12" rx="4" ry="2.5" fill="#C66B85" opacity="0.85"/><circle cx="12" cy="12" r="2.4" fill="#FFF1C9"/></g>
  <circle cx="-14" cy="2" r="1.5" fill="#C66B85" opacity="0.6"/><circle cx="12" cy="-2" r="1" fill="#C66B85" opacity="0.5"/>
</g>
<!-- flower 9: x=67.86 flip=-1 color=#E89BAE -->
<g transform="translate(67.86 50) scale(-1,1)">
  <g transform="translate(-12 -6) rotate(-20) scale(1.2)"><path d="M0 0 Q6 -8 14 -4 Q10 6 0 0 Z" fill="#8FBE7E" opacity="0.75"/></g>
  <g transform="translate(8 -8) rotate(30) scale(1.0)"><path d="M0 0 Q6 -8 14 -4 Q10 6 0 0 Z" fill="#8FBE7E" opacity="0.75"/></g>
  <g transform="translate(-6 8) rotate(200) scale(0.9)"><path d="M0 0 Q6 -8 14 -4 Q10 6 0 0 Z" fill="#8FBE7E" opacity="0.75"/></g>
  <g transform="translate(10 6) rotate(160) scale(1.1)"><path d="M0 0 Q6 -8 14 -4 Q10 6 0 0 Z" fill="#8FBE7E" opacity="0.75"/></g>
  <g transform="translate(-12 -12)"><ellipse cx="12" cy="5" rx="2.5" ry="4" fill="#E89BAE" opacity="0.85"/><ellipse cx="12" cy="19" rx="2.5" ry="4" fill="#E89BAE" opacity="0.85"/><ellipse cx="5" cy="12" rx="4" ry="2.5" fill="#E89BAE" opacity="0.85"/><ellipse cx="19" cy="12" rx="4" ry="2.5" fill="#E89BAE" opacity="0.85"/><circle cx="12" cy="12" r="2.4" fill="#FFF1C9"/></g>
  <circle cx="-14" cy="2" r="1.5" fill="#E89BAE" opacity="0.6"/><circle cx="12" cy="-2" r="1" fill="#E89BAE" opacity="0.5"/>
</g>
<!-- flower 10: x=75 flip=1 color=#F5C9D4 -->
<g transform="translate(75 50) scale(1,1)">
  <g transform="translate(-12 -6) rotate(-20) scale(1.2)"><path d="M0 0 Q6 -8 14 -4 Q10 6 0 0 Z" fill="#8FBE7E" opacity="0.75"/></g>
  <g transform="translate(8 -8) rotate(30) scale(1.0)"><path d="M0 0 Q6 -8 14 -4 Q10 6 0 0 Z" fill="#8FBE7E" opacity="0.75"/></g>
  <g transform="translate(-12 -12)"><ellipse cx="12" cy="5" rx="2.5" ry="4" fill="#F5C9D4" opacity="0.85"/><ellipse cx="12" cy="19" rx="2.5" ry="4" fill="#F5C9D4" opacity="0.85"/><ellipse cx="5" cy="12" rx="4" ry="2.5" fill="#F5C9D4" opacity="0.85"/><ellipse cx="19" cy="12" rx="4" ry="2.5" fill="#F5C9D4" opacity="0.85"/><circle cx="12" cy="12" r="2.4" fill="#FFF1C9"/></g>
</g>
<!-- flower 11: x=82.14 flip=-1 color=#FBD3D3 -->
<g transform="translate(82.14 50) scale(-1,1)">
  <g transform="translate(-12 -6) rotate(-20) scale(1.2)"><path d="M0 0 Q6 -8 14 -4 Q10 6 0 0 Z" fill="#8FBE7E" opacity="0.75"/></g>
  <g transform="translate(8 -8) rotate(30) scale(1.0)"><path d="M0 0 Q6 -8 14 -4 Q10 6 0 0 Z" fill="#8FBE7E" opacity="0.75"/></g>
  <g transform="translate(-12 -12)"><ellipse cx="12" cy="5" rx="2.5" ry="4" fill="#FBD3D3" opacity="0.85"/><ellipse cx="12" cy="19" rx="2.5" ry="4" fill="#FBD3D3" opacity="0.85"/><ellipse cx="5" cy="12" rx="4" ry="2.5" fill="#FBD3D3" opacity="0.85"/><ellipse cx="19" cy="12" rx="4" ry="2.5" fill="#FBD3D3" opacity="0.85"/><circle cx="12" cy="12" r="2.4" fill="#FFF1C9"/></g>
</g>
<!-- flower 12: x=89.29 flip=1 color=#C66B85 -->
<g transform="translate(89.29 50) scale(1,1)">
  <g transform="translate(-12 -6) rotate(-20) scale(1.2)"><path d="M0 0 Q6 -8 14 -4 Q10 6 0 0 Z" fill="#8FBE7E" opacity="0.75"/></g>
  <g transform="translate(8 -8) rotate(30) scale(1.0)"><path d="M0 0 Q6 -8 14 -4 Q10 6 0 0 Z" fill="#8FBE7E" opacity="0.75"/></g>
  <g transform="translate(-6 8) rotate(200) scale(0.9)"><path d="M0 0 Q6 -8 14 -4 Q10 6 0 0 Z" fill="#8FBE7E" opacity="0.75"/></g>
  <g transform="translate(10 6) rotate(160) scale(1.1)"><path d="M0 0 Q6 -8 14 -4 Q10 6 0 0 Z" fill="#8FBE7E" opacity="0.75"/></g>
  <g transform="translate(-12 -12)"><ellipse cx="12" cy="5" rx="2.5" ry="4" fill="#C66B85" opacity="0.85"/><ellipse cx="12" cy="19" rx="2.5" ry="4" fill="#C66B85" opacity="0.85"/><ellipse cx="5" cy="12" rx="4" ry="2.5" fill="#C66B85" opacity="0.85"/><ellipse cx="19" cy="12" rx="4" ry="2.5" fill="#C66B85" opacity="0.85"/><circle cx="12" cy="12" r="2.4" fill="#FFF1C9"/></g>
  <circle cx="-14" cy="2" r="1.5" fill="#C66B85" opacity="0.6"/><circle cx="12" cy="-2" r="1" fill="#C66B85" opacity="0.5"/>
</g>
<!-- flower 13: x=96.43 flip=-1 color=#E89BAE -->
<g transform="translate(96.43 50) scale(-1,1)">
  <g transform="translate(-12 -6) rotate(-20) scale(1.2)"><path d="M0 0 Q6 -8 14 -4 Q10 6 0 0 Z" fill="#8FBE7E" opacity="0.75"/></g>
  <g transform="translate(8 -8) rotate(30) scale(1.0)"><path d="M0 0 Q6 -8 14 -4 Q10 6 0 0 Z" fill="#8FBE7E" opacity="0.75"/></g>
  <g transform="translate(-12 -12)"><ellipse cx="12" cy="5" rx="2.5" ry="4" fill="#E89BAE" opacity="0.85"/><ellipse cx="12" cy="19" rx="2.5" ry="4" fill="#E89BAE" opacity="0.85"/><ellipse cx="5" cy="12" rx="4" ry="2.5" fill="#E89BAE" opacity="0.85"/><ellipse cx="19" cy="12" rx="4" ry="2.5" fill="#E89BAE" opacity="0.85"/><circle cx="12" cy="12" r="2.4" fill="#FFF1C9"/></g>
</g>
</svg>
